<svg width="145" height="31" viewBox="0 0 145 31" fill="none" xmlns="http://www.w3.org/2000/svg">
<g clip-path="url(#clip0_3126_2)">
<path d="M24.476 3.38283V1.82525L18.6875 -0.0126953V1.62277L24.476 3.38283Z" fill="#0F0F0F"/>
<path d="M19.8841 1.39258V30.3449H5.15625V3.50155L19.8841 1.39258Z" fill="#0F0F0F"/>
<path d="M6.75586 3.27404V1.74449L18.2862 0V1.623L6.75586 3.27404Z" fill="#0F0F0F"/>
<path d="M19.0133 2.99023L6.02734 4.75653V7.0306L19.0133 5.42318V2.99023Z" fill="white"/>
<path d="M19.0133 6.04297L6.02734 7.6099V8.45722L19.0133 6.94948V6.04297Z" fill="#777777"/>
<path d="M13.2506 8.2207L11.7949 8.38581V13.6722L13.2506 13.5476V8.2207Z" fill="#777777"/>
<path d="M19.0133 13.6729L6.02734 14.7476V15.5949L19.0133 14.5794V13.6729Z" fill="#777777"/>
<path d="M13.2506 15.6318L11.7949 15.7409V21.0273L13.2506 20.9588V15.6318Z" fill="#777777"/>
<path d="M19.0133 21.2988L6.02734 21.8845V22.7318L19.0133 22.2053V21.2988Z" fill="#777777"/>
<path d="M13.2506 23.04L11.7949 23.0961V28.3825L13.2506 28.367V23.04Z" fill="#777777"/>
<path d="M11.3275 23.1113L6.02734 23.3107V28.4414L11.3275 28.3853V23.1113Z" fill="white"/>
<path d="M19.013 22.8252L13.7129 23.0215V28.364L19.013 28.3079V22.8252Z" fill="white"/>
<path d="M11.3275 15.7754L6.02734 16.1741V21.3048L11.3275 21.0494V15.7754Z" fill="white"/>
<path d="M19.013 15.1953L13.7129 15.5941V20.9334L19.013 20.6811V15.1953Z" fill="white"/>
<path d="M11.3275 8.43945L6.02734 9.04068V14.1682L11.3275 13.7134V8.43945Z" fill="white"/>
<path d="M19.013 7.57031L13.7129 8.16842V13.5109L19.013 13.053V7.57031Z" fill="white"/>
<path d="M4.84249 16.5762V22.2458C3.43036 22.7598 0.251508 23.8439 0.251508 24.3329L-0.00976562 18.6041C-0.00976562 17.274 3.06644 16.9157 4.84249 16.5762Z" fill="#0F0F0F"/>
<path d="M20.2891 1.39258V30.3449H27.2595V3.50155L20.2891 1.39258Z" fill="#0F0F0F"/>
<path d="M21.1602 3.12402L26.3888 4.62553V6.91206L21.1602 5.54451V3.12402Z" fill="white"/>
<path d="M21.1602 6.1582L26.3888 7.49149V8.34505L21.1602 7.0616V6.1582Z" fill="#777777"/>
<path d="M21.1602 13.75L26.3888 14.6659V15.5194L21.1602 14.6534V13.75Z" fill="#777777"/>
<path d="M21.1602 21.3418L26.3888 21.8402V22.6907L21.1602 22.2452V21.3418Z" fill="#777777"/>
<path d="M21.0879 22.8564L26.388 23.2739V28.4326L21.0879 28.3173V22.8564Z" fill="white"/>
<path d="M21.0879 15.2578L26.388 16.102V21.2576L21.0879 20.7187V15.2578Z" fill="white"/>
<path d="M21.0879 7.66309L26.388 8.92784V14.0866L21.0879 13.124V7.66309Z" fill="white"/>
<path d="M2.3386 19.6565C9.04467 20.1829 10.0213 20.1113 12.5221 19.6378C16.7678 18.8372 24.4755 16.9899 28.9234 14.1894C28.519 13.5663 27.8969 12.5383 27.8969 12.5383L39.9933 11.2549L31.816 21.2483C31.816 21.2483 31.4646 20.3449 31.1722 19.7157C26.4763 22.4526 21.3448 24.3589 16.0027 25.351C11.7798 26.2161 7.44223 26.3687 3.16908 25.8027C0.749177 25.4912 0.332379 24.6221 0.251509 24.3323L-0.00976562 18.6036C0.0742157 19.2141 1.42103 19.5848 2.3386 19.6565Z" fill="#0F0F0F"/>
</g>
<path d="M45.7988 11.1494V10.6221H48.3066L58.3613 22.8096H58.3848L58.2207 11.2666L56.4277 11.1494V10.6221H60.7637V11.1494L58.959 11.2666L59.0879 27.5791H58.373L48.3184 15.3564H48.2949L48.459 26.7002L50.252 26.8174V27.3447H45.916V26.8174L47.7207 26.7002L47.5918 11.2666L45.7988 11.1494ZM62.0879 21.4619C62.0879 20.8525 62.1465 20.2588 62.2637 19.6807C62.3809 19.0947 62.5723 18.5322 62.8379 17.9932C63.1035 17.4541 63.4277 16.9814 63.8105 16.5752C64.1934 16.1689 64.666 15.8447 65.2285 15.6025C65.7988 15.3525 66.4277 15.2275 67.1152 15.2275C67.7637 15.2275 68.3457 15.3213 68.8613 15.5088C69.377 15.6885 69.8066 15.9424 70.1504 16.2705C70.4941 16.5986 70.7793 17.001 71.0059 17.4775C71.2324 17.9463 71.3926 18.458 71.4863 19.0127C71.5879 19.5596 71.6387 20.1611 71.6387 20.8174L71.3223 21.1104H65.0879V21.8252C65.0879 25.2314 66.0566 26.9346 67.9941 26.9346C69.3691 26.9346 70.4668 26.2471 71.2871 24.8721L71.7441 25.1533C70.7363 26.8486 69.3027 27.6963 67.4434 27.6963C65.6465 27.6963 64.3027 27.1416 63.4121 26.0322C62.5293 24.9229 62.0879 23.3994 62.0879 21.4619ZM65.0879 20.583L68.873 20.4307C68.8965 20.0322 68.9082 19.6494 68.9082 19.2822C68.9082 18.1494 68.7715 17.2783 68.498 16.6689C68.2324 16.0596 67.7871 15.7549 67.1621 15.7549C66.7871 15.7549 66.4629 15.8799 66.1895 16.1299C65.9238 16.3721 65.7168 16.7236 65.5684 17.1846C65.4199 17.6455 65.3066 18.1494 65.2285 18.6963C65.1582 19.2354 65.1113 19.8643 65.0879 20.583ZM77.5566 27.1221C78.4473 27.1221 79.1035 26.958 79.5254 26.6299C79.9551 26.3018 80.1699 25.8916 80.1699 25.3994C80.1699 25.1416 80.127 24.915 80.041 24.7197C79.9629 24.5166 79.8301 24.3252 79.6426 24.1455C79.4629 23.958 79.2207 23.7705 78.916 23.583C78.6191 23.3877 78.248 23.1689 77.8027 22.9268C77.4121 22.7002 76.998 22.4658 76.5605 22.2236C76.123 21.9736 75.7168 21.6885 75.3418 21.3682C74.9746 21.04 74.666 20.6611 74.416 20.2314C74.1738 19.8018 74.0527 19.2861 74.0527 18.6846C74.0527 18.1533 74.1543 17.6729 74.3574 17.2432C74.5605 16.8135 74.8418 16.4502 75.2012 16.1533C75.5684 15.8486 76.002 15.6143 76.502 15.4502C77.0098 15.2861 77.5645 15.2041 78.166 15.2041C78.6191 15.2041 79.0723 15.2627 79.5254 15.3799C79.9863 15.4893 80.4004 15.6572 80.7676 15.8838C81.1348 16.1104 81.4316 16.3916 81.6582 16.7275C81.8848 17.0635 81.998 17.4541 81.998 17.8994C81.998 18.0713 81.9668 18.2393 81.9043 18.4033C81.8496 18.5674 81.7637 18.7158 81.6465 18.8486C81.5293 18.9814 81.3848 19.0908 81.2129 19.1768C81.0488 19.2549 80.8574 19.2939 80.6387 19.2939C80.1855 19.2939 79.8457 19.1689 79.6191 18.9189C79.3926 18.6689 79.2793 18.3643 79.2793 18.0049C79.2793 17.7783 79.3105 17.5869 79.373 17.4307C79.4355 17.2666 79.5176 17.1338 79.6191 17.0322C79.7285 16.9229 79.8496 16.8447 79.9824 16.7979C80.123 16.7432 80.2637 16.7158 80.4043 16.7158H80.5098V16.6924C80.4316 16.5674 80.3184 16.4502 80.1699 16.3408C80.0215 16.2236 79.8457 16.1221 79.6426 16.0361C79.4395 15.9424 79.2129 15.8682 78.9629 15.8135C78.7129 15.7588 78.4473 15.7314 78.166 15.7314C77.752 15.7314 77.4004 15.7861 77.1113 15.8955C76.8223 16.0049 76.584 16.1455 76.3965 16.3174C76.2168 16.4814 76.084 16.665 75.998 16.8682C75.9121 17.0713 75.8691 17.2666 75.8691 17.4541C75.8691 17.6807 75.9043 17.876 75.9746 18.04C76.0449 18.2041 76.166 18.3721 76.3379 18.5439C76.5176 18.708 76.7598 18.8877 77.0645 19.083C77.377 19.2783 77.7676 19.5127 78.2363 19.7861C78.6895 20.0205 79.166 20.2705 79.666 20.5361C80.1738 20.8018 80.6387 21.1104 81.0605 21.4619C81.4824 21.8057 81.8301 22.2041 82.1035 22.6572C82.3848 23.1025 82.5254 23.626 82.5254 24.2275C82.5254 24.7354 82.4277 25.2002 82.2324 25.6221C82.0449 26.0439 81.748 26.4072 81.3418 26.7119C80.9434 27.0166 80.4316 27.251 79.8066 27.415C79.1895 27.5869 78.4551 27.6729 77.6035 27.6729C77.1973 27.6729 76.7637 27.6221 76.3027 27.5205C75.8418 27.4189 75.416 27.2588 75.0254 27.04C74.6348 26.8135 74.3105 26.5244 74.0527 26.1729C73.7949 25.8135 73.666 25.376 73.666 24.8604C73.666 24.6416 73.7012 24.4307 73.7715 24.2275C73.8418 24.0244 73.9395 23.8447 74.0645 23.6885C74.1973 23.5244 74.3574 23.3955 74.5449 23.3018C74.7324 23.208 74.9473 23.1611 75.1895 23.1611C75.4004 23.1611 75.5879 23.2002 75.752 23.2783C75.916 23.3486 76.0527 23.4463 76.1621 23.5713C76.2793 23.6885 76.3691 23.8291 76.4316 23.9932C76.4941 24.1572 76.5293 24.333 76.5371 24.5205C76.5371 24.7393 76.498 24.9346 76.4199 25.1064C76.3418 25.2705 76.2402 25.4072 76.1152 25.5166C75.9902 25.626 75.8457 25.7119 75.6816 25.7744C75.5254 25.8291 75.3691 25.8564 75.2129 25.8564C75.1816 25.8564 75.1465 25.8564 75.1074 25.8564C75.0762 25.8564 75.0449 25.8525 75.0137 25.8447V25.8682C75.084 26.0244 75.1895 26.1768 75.3301 26.3252C75.4707 26.4736 75.6465 26.6064 75.8574 26.7236C76.0762 26.8408 76.3262 26.9385 76.6074 27.0166C76.8965 27.0869 77.2129 27.1221 77.5566 27.1221ZM83.3926 16.083V15.5791H85.3848V12.9893L86.3926 12.8838L88.0449 12.4502L88.2676 12.79V15.5791H90.834V16.083L88.2676 16.1885V24.4385C88.2676 24.915 88.3223 25.3135 88.4316 25.6338C88.5488 25.9463 88.6973 26.1611 88.877 26.2783C89.0645 26.3955 89.2129 26.4697 89.3223 26.501C89.4395 26.5322 89.5605 26.5479 89.6855 26.5479C89.9277 26.5479 90.1582 26.4971 90.377 26.3955C90.6035 26.2861 90.8066 26.1299 90.9863 25.9268C91.1738 25.7236 91.3262 25.54 91.4434 25.376C91.5605 25.2041 91.6934 24.9971 91.8418 24.7549L92.3457 25.0596C91.9316 25.7471 91.5723 26.2471 91.2676 26.5596C90.5254 27.3174 89.6699 27.6963 88.7012 27.6963C88.334 27.6963 88.0059 27.6689 87.7168 27.6143C87.4355 27.5674 87.1426 27.4619 86.8379 27.2979C86.5332 27.1338 86.2793 26.915 86.0762 26.6416C85.873 26.3604 85.7051 25.9775 85.5723 25.4932C85.4473 25.001 85.3848 24.4268 85.3848 23.7705V16.1885L83.3926 16.083ZM93.0254 27.3447V26.8174L94.8301 26.7002V11.2666L93.0254 11.1494V10.6221H99.6348V11.1494L97.8301 11.2666V26.583C99.1035 26.6689 99.9746 26.7119 100.443 26.7119C100.873 26.7119 101.248 26.7002 101.568 26.6768C101.896 26.6533 102.193 26.6025 102.459 26.5244C102.732 26.4463 102.959 26.3643 103.139 26.2783C103.326 26.1924 103.502 26.0596 103.666 25.8799C103.83 25.6924 103.963 25.5127 104.064 25.3408C104.166 25.1611 104.299 24.8174 104.463 24.3096C104.627 23.7939 104.771 23.2119 104.896 22.5635H105.295V27.3447H93.0254ZM106.678 24.8018C106.678 24.4189 106.736 24.0518 106.854 23.7002C106.979 23.3408 107.178 22.9971 107.451 22.6689C107.725 22.3408 108.061 22.0557 108.459 21.8135C108.857 21.5713 109.35 21.3799 109.936 21.2393C110.529 21.0908 111.186 21.0166 111.904 21.0166C112.287 21.0166 112.65 21.0322 112.994 21.0635V19.4463C112.994 18.9307 112.982 18.5127 112.959 18.1924C112.943 17.8721 112.896 17.5439 112.818 17.208C112.74 16.8643 112.627 16.6025 112.479 16.4229C112.338 16.2354 112.135 16.083 111.869 15.9658C111.611 15.8408 111.295 15.7783 110.92 15.7783C109.779 15.7783 108.947 16.2275 108.424 17.126V17.1729C108.557 17.1494 108.678 17.1377 108.787 17.1377C109.193 17.1377 109.514 17.2627 109.748 17.5127C109.982 17.7627 110.1 18.1221 110.1 18.5908C110.1 18.9971 109.959 19.3408 109.678 19.6221C109.396 19.8955 109.045 20.0322 108.623 20.0322C108.162 20.0322 107.799 19.876 107.533 19.5635C107.268 19.251 107.135 18.8838 107.135 18.4619C107.135 17.54 107.557 16.7705 108.4 16.1533C109.252 15.5361 110.229 15.2275 111.33 15.2275C112.111 15.2275 112.775 15.3096 113.322 15.4736C113.877 15.6377 114.318 15.8564 114.646 16.1299C114.975 16.3955 115.229 16.7627 115.408 17.2314C115.596 17.6924 115.717 18.165 115.771 18.6494C115.834 19.1338 115.865 19.7275 115.865 20.4307V26.7471L117.072 26.8643V27.3447H113.346L113.018 25.4932H112.994C112.611 26.2354 112.146 26.79 111.6 27.1572C111.061 27.5166 110.404 27.6963 109.631 27.6963C108.678 27.6963 107.947 27.4111 107.439 26.8408C106.932 26.2705 106.678 25.5908 106.678 24.8018ZM109.514 24.5557C109.514 25.1807 109.631 25.6885 109.865 26.0791C110.1 26.4619 110.443 26.6533 110.896 26.6533C111.428 26.6533 111.908 26.3213 112.338 25.6572C112.775 24.9932 112.994 24.1807 112.994 23.2197V21.6025C112.682 21.5635 112.428 21.5439 112.232 21.5439C111.826 21.5439 111.463 21.5986 111.143 21.708C110.83 21.8174 110.58 21.9658 110.393 22.1533C110.205 22.3408 110.049 22.54 109.924 22.751C109.799 22.9541 109.709 23.1807 109.654 23.4307C109.6 23.6807 109.561 23.8877 109.537 24.0518C109.521 24.2158 109.514 24.3838 109.514 24.5557ZM118.279 16.0361L120.729 15.7783L122.381 15.3447L122.592 15.6846L122.545 17.2666H122.592C123.521 15.9072 124.725 15.2275 126.201 15.2275C126.482 15.2275 126.752 15.251 127.01 15.2979C127.268 15.3447 127.553 15.4502 127.865 15.6143C128.178 15.7783 128.447 15.9932 128.674 16.2588C128.9 16.5244 129.092 16.9033 129.248 17.3955C129.404 17.8877 129.482 18.4619 129.482 19.1182V26.7471L130.678 26.8643V27.3447H125.404V26.8643L126.6 26.7471V18.7783C126.6 17.1143 126.064 16.2822 124.994 16.2822C124.291 16.2822 123.713 16.6025 123.26 17.2432C122.814 17.8838 122.592 18.7236 122.592 19.7627V26.7471L123.799 26.8643V27.3447H118.514V26.8643L119.721 26.7471V16.4932L118.303 16.5166L118.279 16.0361ZM132.225 21.7549C132.225 21.0752 132.287 20.4229 132.412 19.7979C132.537 19.1729 132.736 18.583 133.01 18.0283C133.283 17.4658 133.619 16.9814 134.018 16.5752C134.416 16.1611 134.904 15.833 135.482 15.5908C136.068 15.3486 136.713 15.2275 137.416 15.2275C137.713 15.2275 138.061 15.2783 138.459 15.3799C138.865 15.4736 139.189 15.6221 139.432 15.8252V11.5479H137.99V11.0674L140.439 10.8096L142.092 10.376L142.314 10.7158V26.7471L143.51 26.8643V27.3447H139.596L139.443 25.6807H139.42C138.967 26.4541 138.494 26.9854 138.002 27.2744C137.51 27.5557 136.92 27.6963 136.232 27.6963C136.053 27.6963 135.861 27.6768 135.658 27.6377C135.455 27.5986 135.221 27.5205 134.955 27.4033C134.689 27.2939 134.432 27.1533 134.182 26.9814C133.939 26.8018 133.697 26.5557 133.455 26.2432C133.213 25.9307 133.002 25.5752 132.822 25.1768C132.643 24.7783 132.498 24.2861 132.389 23.7002C132.279 23.1064 132.225 22.458 132.225 21.7549ZM135.225 21.6377C135.225 25.0205 135.924 26.7119 137.322 26.7119C137.877 26.7119 138.365 26.3799 138.787 25.7158C139.217 25.0518 139.432 24.3408 139.432 23.583V16.3994C138.986 16.0635 138.49 15.8955 137.943 15.8955C137.584 15.8955 137.26 15.9697 136.971 16.1182C136.689 16.2666 136.455 16.4541 136.268 16.6807C136.08 16.9072 135.92 17.1963 135.787 17.5479C135.654 17.8916 135.553 18.2236 135.482 18.5439C135.412 18.8643 135.354 19.2314 135.307 19.6455C135.268 20.0596 135.244 20.4072 135.236 20.6885C135.229 20.9697 135.225 21.2861 135.225 21.6377Z" fill="#0F0F0F"/>
<defs>
<clipPath id="clip0_3126_2">
<rect width="40" height="30.3448" fill="white" transform="translate(-0.00976562)"/>
</clipPath>
</defs>
</svg>
